<?xml version="1.0" encoding="UTF-8"?>
<svg width="102px" height="104px" viewBox="0 0 102 104" version="1.1" xmlns="http://www.w3.org/2000/svg" xmlns:xlink="http://www.w3.org/1999/xlink">
    <title>海报中心</title>
    <defs>
        <linearGradient x1="50%" y1="2.21442145%" x2="50%" y2="100%" id="linearGradient-1">
            <stop stop-color="#35D5C0" offset="0%"></stop>
            <stop stop-color="#22C2AE" offset="100%"></stop>
        </linearGradient>
        <path d="M50.3770413,100 C89.5982315,100 100,89.2799272 100,50.058737 C100,10.8375468 88.844149,0 49.6229587,0 C10.4017685,0 7.10542736e-15,10.8375468 7.10542736e-15,50.058737 C7.10542736e-15,89.2799272 11.155851,100 50.3770413,100 Z" id="path-2"></path>
        <path d="M44.6467373,8.03289763 C44.6467373,7.22827255 44.368809,6.54444955 43.8141105,5.98142326 C43.2584033,5.41840234 42.5721276,5.13785144 41.7555741,5.13785144 L7.2082749,5.13785144 C6.39155137,5.13785144 5.70634529,5.41840019 5.15063803,5.98142326 C4.59493077,6.54444417 4.31707439,7.22827255 4.31707439,8.03289763 L4.31707439,25.0272756 C4.31707439,25.9605136 4.5544015,26.8449567 5.02799045,27.682755 C5.50163425,28.518516 6.17988158,29.2685726 7.0618866,29.9270924 C7.9437819,30.5875903 9.00574574,31.1096325 10.2466591,31.4954713 C11.4885817,31.8830685 12.8767336,32.0916117 14.4122886,32.1247259 C16.6004336,32.1557513 18.3732586,31.8655755 19.7289096,31.2558508 C21.0844455,30.643922 22.261147,29.8705457 23.2567651,28.9374152 C24.2533926,28.0041234 25.1849087,26.9911749 26.0499584,25.8961561 C26.9161929,24.8013577 27.9454859,23.7726746 29.1380182,22.8063225 C30.329426,21.8399703 31.799694,21.0275344 33.5478787,20.3690684 C35.2961183,19.708678 37.5581897,19.361845 40.3346635,19.3307092 C40.8250344,19.2975934 41.1108611,19.289837 41.191913,19.3073301 C41.2740346,19.3228978 41.3797878,19.3307092 41.5103513,19.3307092 C41.6418128,19.3307092 41.9108547,19.3384655 42.3191046,19.3540882 C42.7273544,19.3716363 43.5037215,19.3618446 44.6467373,19.3307092 L44.6467373,8.03287613 L44.6467373,8.03287613 L44.6467373,8.03289763 Z" id="path-4"></path>
        <filter x="-5.0%" y="-7.4%" width="109.9%" height="114.8%" filterUnits="objectBoundingBox" id="filter-5">
            <feGaussianBlur stdDeviation="1.5" in="SourceAlpha" result="shadowBlurInner1"></feGaussianBlur>
            <feOffset dx="0" dy="1" in="shadowBlurInner1" result="shadowOffsetInner1"></feOffset>
            <feComposite in="shadowOffsetInner1" in2="SourceAlpha" operator="arithmetic" k2="-1" k3="1" result="shadowInnerInner1"></feComposite>
            <feColorMatrix values="0 0 0 0 0   0 0 0 0 0   0 0 0 0 0  0 0 0 0.14690778 0" type="matrix" in="shadowInnerInner1"></feColorMatrix>
        </filter>
        <path d="M13.6767322,9.3850402 C14.3628928,9.3850402 15.0164976,9.51365259 15.6374315,9.77269274 C16.2584202,10.0299175 16.7962836,10.3825304 17.2540384,10.8344899 C17.7117966,11.2845782 18.0707619,11.81641 18.3317782,12.4262477 C18.5938032,13.037956 18.7243108,13.698454 18.7243108,14.4056558 C18.7243108,15.0817217 18.5938032,15.7187334 18.3317782,16.3129493 C18.0707636,16.9090897 17.7117988,17.4312394 17.2540384,17.883199 C16.7962803,18.3332324 16.2583654,18.687824 15.6374315,18.9449961 C15.0164976,19.2021661 14.3628928,19.3307231 13.6767322,19.3307231 C12.9914713,19.3307231 12.3379213,19.2021656 11.7169874,18.9449961 C11.0960535,18.6878262 10.5571809,18.333234 10.0993712,17.883199 C9.64256694,17.4312405 9.28264766,16.9090897 9.0216314,16.3129493 C8.76056028,15.7187334 8.62999675,15.0816679 8.62999675,14.4056558 C8.62999675,13.698454 8.76056028,13.0379507 9.0216314,12.4262477 C9.28259006,11.8164692 9.6425653,11.2845788 10.0993712,10.8344899 C10.5571858,10.3825315 11.0960535,10.0299186 11.7169874,9.77269274 C12.3379213,9.51359776 12.9914713,9.3850402 13.6767322,9.3850402 L13.6767322,9.3850402 Z" id="path-6"></path>
        <filter x="-64.4%" y="-55.3%" width="228.8%" height="230.7%" filterUnits="objectBoundingBox" id="filter-7">
            <feOffset dx="0" dy="1" in="SourceAlpha" result="shadowOffsetOuter1"></feOffset>
            <feGaussianBlur stdDeviation="2" in="shadowOffsetOuter1" result="shadowBlurOuter1"></feGaussianBlur>
            <feColorMatrix values="0 0 0 0 0   0 0 0 0 0   0 0 0 0 0  0 0 0 0.14729021 0" type="matrix" in="shadowBlurOuter1"></feColorMatrix>
        </filter>
    </defs>
    <g id="页面-1" stroke="none" stroke-width="1" fill="none" fill-rule="evenodd">
        <g id="首页2" transform="translate(-420.000000, -453.000000)">
            <g id="编组-27" transform="translate(36.000000, 453.000000)">
                <g id="海报中心" transform="translate(384.000000, 0.000000)">
                    <g id="矩形" transform="translate(0.000000, 4.000000)">
                        <mask id="mask-3" fill="white">
                            <use xlink:href="#path-2"></use>
                        </mask>
                        <use id="蒙版" fill="url(#linearGradient-1)" xlink:href="#path-2"></use>
                        <path d="M29.4374926,4.99493059 L134.437493,4.99493059 L134.437493,39.9949306 C115.233796,32.1064192 96.1899557,28.1621634 77.3059727,28.1621634 C61.1899557,28.1621634 43.1288609,32.0521056 23.1226883,39.8319898 L29.4374926,4.99493059 Z" fill="#F4472D" mask="url(#mask-3)" transform="translate(78.780090, 22.494931) rotate(40.000000) translate(-78.780090, -22.494931) "></path>
                        <g id="海报" mask="url(#mask-3)" fill-rule="nonzero">
                            <g transform="translate(25.000000, 25.000000)">
                                <path d="M46.116878,0.888738188 C46.9010458,0.888738188 47.5793458,1.16928694 48.150829,1.73428825 C48.7222574,2.29730917 49.0080237,2.94801804 49.0080237,3.68833934 L49.0080237,46.3663302 C49.0080237,47.1067052 48.7221981,47.7574141 48.150829,48.320435 C47.579291,48.8834559 46.900991,49.1659314 46.116878,49.1659314 L2.84678445,49.1659314 C2.0636863,49.1659314 1.39329622,48.883457 0.837643814,48.3204351 C0.282945861,47.7574141 0.00508948742,47.1067053 0.00508948742,46.3663302 L0.00508948742,3.68833939 C0.00508948742,2.94801809 0.282944271,2.2973146 0.837643869,1.73428831 C1.39329628,1.16928377 2.06368635,0.888738188 2.8467845,0.888738188 L46.1168781,0.888738188 L46.1168781,0.888738188 L46.116878,0.888738188 Z" id="形状" fill="#FFFFFF"></path>
                                <g id="路径" fill="none">
                                    <use fill="#2ECDB9" xlink:href="#path-4"></use>
                                    <use fill="black" fill-opacity="1" filter="url(#filter-5)" xlink:href="#path-4"></use>
                                </g>
                                <g id="路径" fill="none">
                                    <use fill="black" fill-opacity="1" filter="url(#filter-7)" xlink:href="#path-6"></use>
                                    <use fill="#FFFFFF" xlink:href="#path-6"></use>
                                </g>
                            </g>
                        </g>
                    </g>
                    <text id="new" transform="translate(78.867928, 20.821384) rotate(43.000000) translate(-78.867928, -20.821384) " font-family="News706BT-BoldC, News706 BT" font-size="20" font-weight="bold" letter-spacing="-1.5" fill="#FFFFFF">
                        <tspan x="61.3679283" y="27.8213843">new</tspan>
                    </text>
                </g>
            </g>
        </g>
    </g>
</svg>