<?xml version="1.0" encoding="UTF-8"?>
<svg width="129px" height="37px" viewBox="0 0 129 37" version="1.1" xmlns="http://www.w3.org/2000/svg" xmlns:xlink="http://www.w3.org/1999/xlink">
    <title>3大侠</title>
    <defs>
        <linearGradient x1="50%" y1="0%" x2="50%" y2="100%" id="linearGradient-1">
            <stop stop-color="#8496ED" offset="0%"></stop>
            <stop stop-color="#5664AE" offset="100%"></stop>
        </linearGradient>
        <linearGradient x1="50%" y1="0%" x2="50%" y2="100%" id="linearGradient-2">
            <stop stop-color="#B0BDFF" offset="0%"></stop>
            <stop stop-color="#8193EC" offset="100%"></stop>
        </linearGradient>
        <path d="M25,0 L103,0 C106.313708,-6.08718376e-16 109,2.6862915 109,6 L109,32 L109,32 L19,32 L19,6 C19,2.6862915 21.6862915,6.08718376e-16 25,0 Z" id="path-3"></path>
        <filter x="-3.3%" y="-9.4%" width="106.7%" height="118.8%" filterUnits="objectBoundingBox" id="filter-4">
            <feOffset dx="0" dy="0" in="SourceAlpha" result="shadowOffsetOuter1"></feOffset>
            <feGaussianBlur stdDeviation="1" in="shadowOffsetOuter1" result="shadowBlurOuter1"></feGaussianBlur>
            <feColorMatrix values="0 0 0 0 0   0 0 0 0 0   0 0 0 0 0  0 0 0 0.3 0" type="matrix" in="shadowBlurOuter1"></feColorMatrix>
        </filter>
        <path d="M18.34375,18.75 C22.6666667,16.6145833 25.21875,14.0364583 26,11.015625 C27.09375,14.4010417 29.59375,16.9010417 33.5,18.515625 C34.3333333,17.3177083 34.984375,16.484375 35.453125,16.015625 C30.921875,14.609375 28.2395833,11.796875 27.40625,7.578125 L27.40625,7.578125 L34.90625,7.578125 L34.90625,4.921875 L27.40625,4.921875 L27.40625,4.921875 L27.40625,2.578125 C27.4583333,1.484375 27.484375,0.677083333 27.484375,0.15625 L27.484375,0.15625 L24.59375,0.15625 C24.59375,2.1875 24.5677083,3.77604167 24.515625,4.921875 L24.515625,4.921875 L17.015625,4.921875 L17.015625,7.578125 L24.28125,7.578125 C23.96875,11.4322917 21.390625,14.375 16.546875,16.40625 C17.015625,16.9270833 17.6145833,17.7083333 18.34375,18.75 Z M42.078125,18.671875 L42.078125,5 C42.6510417,3.69791667 43.171875,2.265625 43.640625,0.703125 L43.640625,0.703125 L41.0625,0 C40.125,3.22916667 38.9010417,6.04166667 37.390625,8.4375 C37.4947917,8.85416667 37.625,9.50520833 37.78125,10.390625 C37.8854167,11.0677083 37.9635417,11.5885417 38.015625,11.953125 C38.171875,11.6927083 38.40625,11.328125 38.71875,10.859375 C39.1354167,10.2864583 39.421875,9.86979167 39.578125,9.609375 L39.578125,9.609375 L39.578125,18.671875 L42.078125,18.671875 Z M43.875,18.75 C46.9479167,17.2395833 48.8229167,15.5989583 49.5,13.828125 C50.4895833,15.7552083 52.3645833,17.34375 55.125,18.59375 C55.5416667,17.8125 56.0104167,17.0833333 56.53125,16.40625 C53.8229167,15.46875 52,13.9583333 51.0625,11.875 L51.0625,11.875 L56.375,11.875 L56.375,9.609375 L50.828125,9.609375 C50.8802083,8.88020833 50.90625,8.09895833 50.90625,7.265625 L50.90625,7.265625 L50.984375,4.84375 L55.59375,4.84375 L55.59375,2.578125 L50.984375,2.578125 C51.0364583,1.796875 51.0625,0.989583333 51.0625,0.15625 L51.0625,0.15625 L48.484375,0.15625 L48.484375,2.578125 L43.796875,2.578125 L43.796875,4.84375 L48.484375,4.84375 C48.484375,5.67708333 48.4583333,6.45833333 48.40625,7.1875 C48.40625,8.07291667 48.3802083,8.88020833 48.328125,9.609375 L48.328125,9.609375 L43.015625,9.609375 L43.015625,11.875 L47.859375,11.875 C47.234375,13.75 45.3854167,15.2864583 42.3125,16.484375 C42.4166667,16.640625 42.5989583,16.875 42.859375,17.1875 C43.3802083,17.9166667 43.71875,18.4375 43.875,18.75 Z M53.484375,9.296875 C54.265625,8.25520833 55.0208333,7.23958333 55.75,6.25 L55.75,6.25 L53.875,5.15625 C53.09375,6.25 52.3645833,7.21354167 51.6875,8.046875 L51.6875,8.046875 L53.484375,9.296875 Z M45.59375,9.21875 L47.546875,7.96875 C47.390625,7.76041667 47.15625,7.44791667 46.84375,7.03125 C46.2708333,6.25 45.8020833,5.625 45.4375,5.15625 L45.4375,5.15625 L43.640625,6.25 C44.3177083,7.23958333 44.96875,8.22916667 45.59375,9.21875 L45.59375,9.21875 Z" id="path-5"></path>
        <filter x="-5.0%" y="-5.3%" width="110.0%" height="121.3%" filterUnits="objectBoundingBox" id="filter-6">
            <feOffset dx="0" dy="1" in="SourceAlpha" result="shadowOffsetOuter1"></feOffset>
            <feGaussianBlur stdDeviation="0.5" in="shadowOffsetOuter1" result="shadowBlurOuter1"></feGaussianBlur>
            <feColorMatrix values="0 0 0 0 0.360784314   0 0 0 0 0.419607843   0 0 0 0 0.717647059  0 0 0 1 0" type="matrix" in="shadowBlurOuter1"></feColorMatrix>
        </filter>
    </defs>
    <g id="页面-1" stroke="none" stroke-width="1" fill="none" fill-rule="evenodd">
        <g id="画板" transform="translate(-305.000000, -379.000000)">
            <g id="3大侠" transform="translate(305.000000, 381.000000)">
                <polygon id="矩形" fill="url(#linearGradient-1)" points="91 7 129 7 117.377132 21 129 35 91 35"></polygon>
                <path d="M91.0166504,32 C91.3927207,32 97.3871706,33 109,35 L109,32 C96.63503,32 90.6405801,32 91.0166504,32 Z" id="路径-11" fill="#394687" transform="translate(100.000000, 33.500000) scale(-1, 1) translate(-100.000000, -33.500000) "></path>
                <polygon id="矩形备份-2" fill="url(#linearGradient-1)" transform="translate(19.000000, 21.000000) scale(-1, 1) translate(-19.000000, -21.000000) " points="0 7 38 7 26.3771324 21 38 35 0 35"></polygon>
                <g id="矩形">
                    <use fill="black" fill-opacity="1" filter="url(#filter-4)" xlink:href="#path-3"></use>
                    <use fill="url(#linearGradient-2)" fill-rule="evenodd" xlink:href="#path-3"></use>
                </g>
                <g id="编组-5" transform="translate(27.000000, 6.515625)">
                    <g id="大侠" fill-rule="nonzero">
                        <use fill="black" fill-opacity="1" filter="url(#filter-6)" xlink:href="#path-5"></use>
                        <use fill="#FFFFFF" xlink:href="#path-5"></use>
                    </g>
                    <polygon id="星形" fill="#FFFFFF" points="5 11.984375 2.06107374 13.52946 2.62235871 10.2569175 0.244717419 7.93929003 3.53053687 7.46183251 5 4.484375 6.46946313 7.46183251 9.75528258 7.93929003 7.37764129 10.2569175 7.93892626 13.52946"></polygon>
                    <polygon id="星形备份" fill="#FFFFFF" points="69 11.984375 66.0610737 13.52946 66.6223587 10.2569175 64.2447174 7.93929003 67.5305369 7.46183251 69 4.484375 70.4694631 7.46183251 73.7552826 7.93929003 71.3776413 10.2569175 71.9389263 13.52946"></polygon>
                </g>
                <path d="M19,32 C19.3973306,32 25.730664,33 38,35 L38,32 C24.9360027,32 18.6026694,32 19,32 Z" id="路径-11" fill="#394687"></path>
            </g>
        </g>
    </g>
</svg>