<?xml version="1.0" encoding="UTF-8"?>
<svg width="129px" height="37px" viewBox="0 0 129 37" version="1.1" xmlns="http://www.w3.org/2000/svg" xmlns:xlink="http://www.w3.org/1999/xlink">
    <title>6盟主</title>
    <defs>
        <linearGradient x1="50%" y1="0%" x2="50%" y2="100%" id="linearGradient-1">
            <stop stop-color="#F1894F" offset="0%"></stop>
            <stop stop-color="#D8241A" offset="100%"></stop>
        </linearGradient>
        <linearGradient x1="50%" y1="0%" x2="50%" y2="100%" id="linearGradient-2">
            <stop stop-color="#FFA56F" offset="0%"></stop>
            <stop stop-color="#F93C32" offset="100%"></stop>
        </linearGradient>
        <path d="M25,0 L103,0 C106.313708,-6.08718376e-16 109,2.6862915 109,6 L109,32 L109,32 L19,32 L19,6 C19,2.6862915 21.6862915,6.08718376e-16 25,0 Z" id="path-3"></path>
        <filter x="-3.3%" y="-9.4%" width="106.7%" height="118.8%" filterUnits="objectBoundingBox" id="filter-4">
            <feOffset dx="0" dy="0" in="SourceAlpha" result="shadowOffsetOuter1"></feOffset>
            <feGaussianBlur stdDeviation="1" in="shadowOffsetOuter1" result="shadowBlurOuter1"></feGaussianBlur>
            <feColorMatrix values="0 0 0 0 0   0 0 0 0 0   0 0 0 0 0  0 0 0 0.3 0" type="matrix" in="shadowBlurOuter1"></feColorMatrix>
        </filter>
        <path d="M26.546875,11.765625 C27.328125,10.515625 27.796875,9.421875 27.953125,8.484375 L27.953125,8.484375 L32.015625,8.484375 L32.015625,8.5625 C32.0677083,9.29166667 31.703125,9.63020833 30.921875,9.578125 L30.921875,9.578125 L28.65625,9.578125 C28.9166667,10.203125 29.0729167,10.7760417 29.125,11.296875 L29.125,11.296875 L32.09375,11.296875 C33.65625,11.296875 34.4114583,10.4375 34.359375,8.71875 L34.359375,8.71875 L34.359375,1.21875 L25.921875,1.21875 L25.921875,5.125 C26.0260417,7.41666667 25.5572917,9.16145833 24.515625,10.359375 C25.140625,10.7760417 25.8177083,11.2447917 26.546875,11.765625 Z M24.4375,10.671875 L24.4375,1.453125 L17.640625,1.453125 L17.640625,10.671875 L24.4375,10.671875 Z M32.015625,4.265625 L28.265625,4.265625 L28.265625,3.09375 L32.015625,3.09375 L32.015625,4.265625 Z M22.171875,5.203125 L19.90625,5.203125 L19.90625,3.25 L22.171875,3.25 L22.171875,5.203125 Z M32.015625,6.921875 L28.1875,6.921875 C28.1875,6.609375 28.2135417,6.21875 28.265625,5.75 L28.265625,5.75 L32.015625,5.75 L32.015625,6.921875 Z M22.171875,8.875 L19.90625,8.875 L19.90625,6.921875 L22.171875,6.921875 L22.171875,8.875 Z M35.296875,18.640625 L35.296875,16.609375 L33.65625,16.609375 L33.65625,11.921875 L18.265625,11.921875 L18.265625,16.609375 L16.703125,16.609375 L16.703125,18.640625 L35.296875,18.640625 Z M31,16.609375 L29.203125,16.609375 L29.203125,14.03125 L31,14.03125 L31,16.609375 Z M22.796875,16.609375 L20.921875,16.609375 L20.921875,14.03125 L22.796875,14.03125 L22.796875,16.609375 Z M26.859375,16.609375 L25.0625,16.609375 L25.0625,14.03125 L26.859375,14.03125 L26.859375,16.609375 Z M56.140625,18.40625 L56.140625,15.984375 L48.40625,15.984375 L48.40625,12.390625 L54.421875,12.390625 L54.421875,9.8125 L48.40625,9.8125 L48.40625,6.453125 L55.359375,6.453125 L55.359375,3.953125 L46.375,3.953125 L48.953125,3.40625 C48.8489583,3.09375 48.6666667,2.59895833 48.40625,1.921875 C48.1458333,1.296875 47.9375,0.828125 47.78125,0.515625 L47.78125,0.515625 L44.890625,0.984375 C45.359375,2.13020833 45.75,3.11979167 46.0625,3.953125 L46.0625,3.953125 L38.640625,3.953125 L38.640625,6.453125 L45.59375,6.453125 L45.59375,9.8125 L39.578125,9.8125 L39.578125,12.390625 L45.59375,12.390625 L45.59375,15.984375 L37.78125,15.984375 L37.78125,18.40625 L56.140625,18.40625 Z" id="path-5"></path>
        <filter x="-5.1%" y="-5.5%" width="110.1%" height="122.1%" filterUnits="objectBoundingBox" id="filter-6">
            <feOffset dx="0" dy="1" in="SourceAlpha" result="shadowOffsetOuter1"></feOffset>
            <feGaussianBlur stdDeviation="0.5" in="shadowOffsetOuter1" result="shadowBlurOuter1"></feGaussianBlur>
            <feColorMatrix values="0 0 0 0 0.858823529   0 0 0 0 0.188235294   0 0 0 0 0.125490196  0 0 0 1 0" type="matrix" in="shadowBlurOuter1"></feColorMatrix>
        </filter>
    </defs>
    <g id="页面-1" stroke="none" stroke-width="1" fill="none" fill-rule="evenodd">
        <g id="画板" transform="translate(-312.000000, -441.000000)">
            <g id="6盟主" transform="translate(312.000000, 443.000000)">
                <polygon id="矩形" fill="url(#linearGradient-1)" points="91 7 129 7 117.377132 21 129 35 91 35"></polygon>
                <path d="M91.0166504,32 C91.3927207,32 97.3871706,33 109,35 L109,32 C96.63503,32 90.6405801,32 91.0166504,32 Z" id="路径-11" fill="#AD0F06" transform="translate(100.000000, 33.500000) scale(-1, 1) translate(-100.000000, -33.500000) "></path>
                <polygon id="矩形备份-2" fill="url(#linearGradient-1)" transform="translate(19.000000, 21.000000) scale(-1, 1) translate(-19.000000, -21.000000) " points="0 7 38 7 26.3771324 21 38 35 0 35"></polygon>
                <g id="矩形">
                    <use fill="black" fill-opacity="1" filter="url(#filter-4)" xlink:href="#path-3"></use>
                    <use fill="url(#linearGradient-2)" fill-rule="evenodd" xlink:href="#path-3"></use>
                </g>
                <g id="编组-5" transform="translate(27.000000, 6.000000)">
                    <g id="盟主" fill-rule="nonzero">
                        <use fill="black" fill-opacity="1" filter="url(#filter-6)" xlink:href="#path-5"></use>
                        <use fill="#FFFFFF" xlink:href="#path-5"></use>
                    </g>
                    <polygon id="星形" fill="#FFFFFF" points="5 12.5 2.06107374 14.045085 2.62235871 10.7725425 0.244717419 8.45491503 3.53053687 7.97745751 5 5 6.46946313 7.97745751 9.75528258 8.45491503 7.37764129 10.7725425 7.93892626 14.045085"></polygon>
                    <polygon id="星形备份" fill="#FFFFFF" points="69 12.5 66.0610737 14.045085 66.6223587 10.7725425 64.2447174 8.45491503 67.5305369 7.97745751 69 5 70.4694631 7.97745751 73.7552826 8.45491503 71.3776413 10.7725425 71.9389263 14.045085"></polygon>
                </g>
                <path d="M19,32 C19.3973306,32 25.730664,33 38,35 L38,32 C24.9360027,32 18.6026694,32 19,32 Z" id="路径-11" fill="#AD0F06"></path>
            </g>
        </g>
    </g>
</svg>