<?xml version="1.0" encoding="UTF-8"?>
<svg width="129px" height="37px" viewBox="0 0 129 37" version="1.1" xmlns="http://www.w3.org/2000/svg" xmlns:xlink="http://www.w3.org/1999/xlink">
    <title>2少侠</title>
    <defs>
        <linearGradient x1="50%" y1="0%" x2="50%" y2="100%" id="linearGradient-1">
            <stop stop-color="#F1894F" offset="0%"></stop>
            <stop stop-color="#70D9C5" offset="0%"></stop>
            <stop stop-color="#459A8A" offset="100%"></stop>
        </linearGradient>
        <linearGradient x1="50%" y1="0%" x2="50%" y2="100%" id="linearGradient-2">
            <stop stop-color="#89F8E3" offset="0%"></stop>
            <stop stop-color="#5EC3B0" offset="100%"></stop>
        </linearGradient>
        <path d="M25,0 L103,0 C106.313708,-6.08718376e-16 109,2.6862915 109,6 L109,32 L109,32 L19,32 L19,6 C19,2.6862915 21.6862915,6.08718376e-16 25,0 Z" id="path-3"></path>
        <filter x="-3.3%" y="-9.4%" width="106.7%" height="118.8%" filterUnits="objectBoundingBox" id="filter-4">
            <feOffset dx="0" dy="0" in="SourceAlpha" result="shadowOffsetOuter1"></feOffset>
            <feGaussianBlur stdDeviation="1" in="shadowOffsetOuter1" result="shadowBlurOuter1"></feGaussianBlur>
            <feColorMatrix values="0 0 0 0 0   0 0 0 0 0   0 0 0 0 0  0 0 0 0.3 0" type="matrix" in="shadowBlurOuter1"></feColorMatrix>
        </filter>
        <path d="M27.25,12.078125 L27.25,0.671875 L24.515625,0.671875 L24.515625,12.078125 L27.25,12.078125 Z M33.5,10.125 L35.6875,8.484375 C33.65625,6.08854167 31.9635417,4.16145833 30.609375,2.703125 L30.609375,2.703125 L28.65625,4.1875 C28.8125,4.34375 29.046875,4.60416667 29.359375,4.96875 C31.234375,7.26041667 32.6145833,8.97916667 33.5,10.125 L33.5,10.125 Z M18.96875,12.15625 C20.4791667,9.44791667 21.78125,6.73958333 22.875,4.03125 L22.875,4.03125 L20.21875,3.015625 C19.2291667,5.72395833 18.0052083,8.30208333 16.546875,10.75 C16.6510417,10.8020833 16.8072917,10.8802083 17.015625,10.984375 C17.9010417,11.453125 18.5520833,11.84375 18.96875,12.15625 Z M18.03125,19.265625 C24.6979167,18.0677083 29.75,15.28125 33.1875,10.90625 L33.1875,10.90625 L31,9.1875 C28.2395833,13.1458333 23.4739583,15.6458333 16.703125,16.6875 C17.2239583,17.625 17.6666667,18.484375 18.03125,19.265625 Z M42.078125,19.1875 L42.078125,5.515625 C42.6510417,4.21354167 43.171875,2.78125 43.640625,1.21875 L43.640625,1.21875 L41.0625,0.515625 C40.125,3.74479167 38.9010417,6.55729167 37.390625,8.953125 C37.4947917,9.36979167 37.625,10.0208333 37.78125,10.90625 C37.8854167,11.5833333 37.9635417,12.1041667 38.015625,12.46875 C38.171875,12.2083333 38.40625,11.84375 38.71875,11.375 C39.1354167,10.8020833 39.421875,10.3854167 39.578125,10.125 L39.578125,10.125 L39.578125,19.1875 L42.078125,19.1875 Z M43.875,19.265625 C46.9479167,17.7552083 48.8229167,16.1145833 49.5,14.34375 C50.4895833,16.2708333 52.3645833,17.859375 55.125,19.109375 C55.5416667,18.328125 56.0104167,17.5989583 56.53125,16.921875 C53.8229167,15.984375 52,14.4739583 51.0625,12.390625 L51.0625,12.390625 L56.375,12.390625 L56.375,10.125 L50.828125,10.125 C50.8802083,9.39583333 50.90625,8.61458333 50.90625,7.78125 L50.90625,7.78125 L50.984375,5.359375 L55.59375,5.359375 L55.59375,3.09375 L50.984375,3.09375 C51.0364583,2.3125 51.0625,1.50520833 51.0625,0.671875 L51.0625,0.671875 L48.484375,0.671875 L48.484375,3.09375 L43.796875,3.09375 L43.796875,5.359375 L48.484375,5.359375 C48.484375,6.19270833 48.4583333,6.97395833 48.40625,7.703125 C48.40625,8.58854167 48.3802083,9.39583333 48.328125,10.125 L48.328125,10.125 L43.015625,10.125 L43.015625,12.390625 L47.859375,12.390625 C47.234375,14.265625 45.3854167,15.8020833 42.3125,17 C42.4166667,17.15625 42.5989583,17.390625 42.859375,17.703125 C43.3802083,18.4322917 43.71875,18.953125 43.875,19.265625 Z M53.484375,9.8125 C54.265625,8.77083333 55.0208333,7.75520833 55.75,6.765625 L55.75,6.765625 L53.875,5.671875 C53.09375,6.765625 52.3645833,7.72916667 51.6875,8.5625 L51.6875,8.5625 L53.484375,9.8125 Z M45.59375,9.734375 L47.546875,8.484375 C47.390625,8.27604167 47.15625,7.96354167 46.84375,7.546875 C46.2708333,6.765625 45.8020833,6.140625 45.4375,5.671875 L45.4375,5.671875 L43.640625,6.765625 C44.3177083,7.75520833 44.96875,8.74479167 45.59375,9.734375 L45.59375,9.734375 Z" id="path-5"></path>
        <filter x="-5.0%" y="-5.3%" width="110.0%" height="121.3%" filterUnits="objectBoundingBox" id="filter-6">
            <feOffset dx="0" dy="1" in="SourceAlpha" result="shadowOffsetOuter1"></feOffset>
            <feGaussianBlur stdDeviation="0.5" in="shadowOffsetOuter1" result="shadowBlurOuter1"></feGaussianBlur>
            <feColorMatrix values="0 0 0 0 0.301960784   0 0 0 0 0.647058824   0 0 0 0 0.584313725  0 0 0 1 0" type="matrix" in="shadowBlurOuter1"></feColorMatrix>
        </filter>
    </defs>
    <g id="页面-1" stroke="none" stroke-width="1" fill="none" fill-rule="evenodd">
        <g id="画板" transform="translate(-170.000000, -379.000000)">
            <g id="2少侠" transform="translate(170.000000, 381.000000)">
                <polygon id="矩形" fill="url(#linearGradient-1)" points="91 7 129 7 117.377132 21 129 35 91 35"></polygon>
                <path d="M91.0166504,32 C91.3927207,32 97.3871706,33 109,35 L109,32 C96.63503,32 90.6405801,32 91.0166504,32 Z" id="路径-11" fill="#2F7266" transform="translate(100.000000, 33.500000) scale(-1, 1) translate(-100.000000, -33.500000) "></path>
                <polygon id="矩形备份-2" fill="url(#linearGradient-1)" transform="translate(19.000000, 21.000000) scale(-1, 1) translate(-19.000000, -21.000000) " points="0 7 38 7 26.3771324 21 38 35 0 35"></polygon>
                <g id="矩形">
                    <use fill="black" fill-opacity="1" filter="url(#filter-4)" xlink:href="#path-3"></use>
                    <use fill="url(#linearGradient-2)" fill-rule="evenodd" xlink:href="#path-3"></use>
                </g>
                <g id="编组-5" transform="translate(27.000000, 6.000000)">
                    <g id="少侠" fill-rule="nonzero">
                        <use fill="black" fill-opacity="1" filter="url(#filter-6)" xlink:href="#path-5"></use>
                        <use fill="#FFFFFF" xlink:href="#path-5"></use>
                    </g>
                    <polygon id="星形" fill="#FFFFFF" points="5 12.5 2.06107374 14.045085 2.62235871 10.7725425 0.244717419 8.45491503 3.53053687 7.97745751 5 5 6.46946313 7.97745751 9.75528258 8.45491503 7.37764129 10.7725425 7.93892626 14.045085"></polygon>
                    <polygon id="星形备份" fill="#FFFFFF" points="69 12.5 66.0610737 14.045085 66.6223587 10.7725425 64.2447174 8.45491503 67.5305369 7.97745751 69 5 70.4694631 7.97745751 73.7552826 8.45491503 71.3776413 10.7725425 71.9389263 14.045085"></polygon>
                </g>
                <path d="M19,32 C19.3973306,32 25.730664,33 38,35 L38,32 C24.9360027,32 18.6026694,32 19,32 Z" id="路径-11" fill="#2F7266"></path>
            </g>
        </g>
    </g>
</svg>