<?xml version="1.0" encoding="UTF-8"?>
<svg width="129px" height="37px" viewBox="0 0 129 37" version="1.1" xmlns="http://www.w3.org/2000/svg" xmlns:xlink="http://www.w3.org/1999/xlink">
    <title>1新秀</title>
    <defs>
        <linearGradient x1="50%" y1="0%" x2="50%" y2="100%" id="linearGradient-1">
            <stop stop-color="#93CD64" offset="0%"></stop>
            <stop stop-color="#75A84D" offset="100%"></stop>
        </linearGradient>
        <linearGradient x1="50%" y1="0%" x2="50%" y2="100%" id="linearGradient-2">
            <stop stop-color="#AFEE7D" offset="0%"></stop>
            <stop stop-color="#8DC65F" offset="100%"></stop>
        </linearGradient>
        <path d="M25,0 L103,0 C106.313708,-6.08718376e-16 109,2.6862915 109,6 L109,32 L109,32 L19,32 L19,6 C19,2.6862915 21.6862915,6.08718376e-16 25,0 Z" id="path-3"></path>
        <filter x="-3.3%" y="-9.4%" width="106.7%" height="118.8%" filterUnits="objectBoundingBox" id="filter-4">
            <feOffset dx="0" dy="0" in="SourceAlpha" result="shadowOffsetOuter1"></feOffset>
            <feGaussianBlur stdDeviation="1" in="shadowOffsetOuter1" result="shadowBlurOuter1"></feGaussianBlur>
            <feColorMatrix values="0 0 0 0 0   0 0 0 0 0   0 0 0 0 0  0 0 0 0.3 0" type="matrix" in="shadowBlurOuter1"></feColorMatrix>
        </filter>
        <path d="M18.890625,19.03125 C19.671875,19.03125 20.2708333,19.0052083 20.6875,18.953125 C22.25,18.953125 23.0052083,18.171875 22.953125,16.609375 L22.953125,16.609375 L22.953125,12.546875 L26.234375,12.546875 L26.234375,10.4375 L22.953125,10.4375 L22.953125,9.03125 L26.546875,9.03125 L26.546875,6.921875 L24.359375,6.921875 L25.609375,5.046875 L23.8125,4.421875 L26.15625,4.421875 L26.15625,2.3125 L23.109375,2.3125 L22.640625,0.515625 L19.90625,0.75 C19.9583333,0.958333333 20.0364583,1.27083333 20.140625,1.6875 C20.2447917,1.94791667 20.3229167,2.15625 20.375,2.3125 L20.375,2.3125 L17.015625,2.3125 L17.015625,4.421875 L19.046875,4.421875 L17.640625,5.125 C17.8489583,5.33333333 18.1354167,5.72395833 18.5,6.296875 C18.65625,6.55729167 18.7864583,6.765625 18.890625,6.921875 L18.890625,6.921875 L16.546875,6.921875 L16.546875,9.03125 L20.609375,9.03125 L20.609375,10.4375 L17.015625,10.4375 L17.015625,12.546875 L20.609375,12.546875 L20.609375,15.984375 C20.609375,16.609375 20.296875,16.921875 19.671875,16.921875 L19.671875,16.921875 L18.5,16.921875 C18.96875,15.8802083 19.4375,14.7864583 19.90625,13.640625 L19.90625,13.640625 L18.03125,13.015625 C17.5104167,14.3177083 16.9375,15.59375 16.3125,16.84375 L16.3125,16.84375 L18.109375,17.546875 C18.1614583,17.3385417 18.265625,17.15625 18.421875,17 C18.4739583,17.2083333 18.5520833,17.546875 18.65625,18.015625 L18.6992985,18.2085459 C18.7822066,18.5784439 18.8459821,18.8526786 18.890625,19.03125 Z M27.484375,19.265625 C28.9427083,16.921875 29.6197917,13.71875 29.515625,9.65625 L29.515625,9.65625 L29.515625,9.5 L31.3125,9.5 L31.3125,18.953125 L33.65625,18.953125 L33.65625,9.5 L35.453125,9.5 L35.453125,7.15625 L29.515625,7.15625 L29.515625,4.109375 C30.765625,4.00520833 32.40625,3.82291667 34.4375,3.5625 C34.8020833,3.51041667 35.0625,3.484375 35.21875,3.484375 L35.21875,3.484375 L34.4375,1.140625 C32.25,1.50520833 29.8020833,1.765625 27.09375,1.921875 L27.09375,1.921875 L27.09375,9.421875 C27.09375,12.1822917 26.8854167,14.1875 26.46875,15.4375 C26.3125,15.1640625 26.1123047,14.8173828 25.8681641,14.3974609 L25.609375,13.953125 C25.3489583,13.5364583 25.140625,13.1979167 24.984375,12.9375 L24.984375,12.9375 L23.1875,13.71875 L24.75,16.6875 L26.3125,15.90625 C26.2083333,16.2708333 25.9739583,16.765625 25.609375,17.390625 C25.5052083,17.5989583 25.4270833,17.7552083 25.375,17.859375 C26,18.171875 26.703125,18.640625 27.484375,19.265625 Z M22.015625,6.921875 L19.90625,6.921875 L21.15625,6.296875 C21,6.08854167 20.7916667,5.80208333 20.53125,5.4375 C20.1666667,4.96875 19.8802083,4.63020833 19.671875,4.421875 L19.671875,4.421875 L23.421875,4.421875 C22.953125,5.203125 22.484375,6.03645833 22.015625,6.921875 L22.015625,6.921875 Z M39.5,19.34375 C43.3020833,17.9375 45.28125,15.7760417 45.4375,12.859375 L45.4375,12.859375 L49.1875,12.859375 L48.40625,14.265625 L48.40625,15.046875 L52.234375,15.046875 C52.234375,15.515625 52.1822917,15.9322917 52.078125,16.296875 C52.0260417,16.765625 51.6354167,17 50.90625,17 C49.5520833,17 48.3802083,16.9739583 47.390625,16.921875 C47.546875,17.390625 47.6770833,18.0677083 47.78125,18.953125 L47.78125,18.953125 L51.84375,18.953125 C53.5625,18.953125 54.5,18.1979167 54.65625,16.6875 C54.7083333,16.2708333 54.7604167,15.515625 54.8125,14.421875 C54.8645833,13.8489583 54.890625,13.4322917 54.890625,13.171875 L54.890625,13.171875 L51.296875,13.171875 L52.078125,11.84375 L52.078125,10.828125 L41.0625,10.828125 C42.8854167,10.0989583 44.4479167,9.16145833 45.75,8.015625 L45.75,8.015625 L45.75,10.203125 L48.25,10.203125 L48.25,8.015625 C49.7604167,9.47395833 52.15625,10.6458333 55.4375,11.53125 C55.5416667,11.3229167 55.671875,11.0104167 55.828125,10.59375 C56.0364583,10.0208333 56.21875,9.578125 56.375,9.265625 C53.5625,8.84895833 51.296875,8.015625 49.578125,6.765625 L49.578125,6.765625 L55.90625,6.765625 L55.90625,4.734375 L48.25,4.734375 L48.25,3.328125 C48.9791667,3.27604167 50.0729167,3.25 51.53125,3.25 C52.9895833,3.19791667 54.0833333,3.171875 54.8125,3.171875 L54.8125,3.171875 L54.5,1.0625 C50.28125,1.32291667 45.1510417,1.453125 39.109375,1.453125 C39.265625,2.18229167 39.3697917,2.859375 39.421875,3.484375 C40.1510417,3.484375 41.2447917,3.45833333 42.703125,3.40625 L42.703125,3.40625 L45.75,3.40625 L45.75,4.734375 L38.09375,4.734375 L38.09375,6.765625 L44.34375,6.765625 C42.6770833,8.015625 40.4114583,8.92708333 37.546875,9.5 C37.7552083,9.8125 37.9895833,10.3333333 38.25,11.0625 C38.40625,11.375 38.5104167,11.609375 38.5625,11.765625 C39.1875,11.5052083 39.8125,11.2708333 40.4375,11.0625 L40.4375,11.0625 L40.4375,12.859375 L42.78125,12.859375 C42.78125,14.890625 41.1927083,16.3489583 38.015625,17.234375 C38.7447917,18.2760417 39.2395833,18.9791667 39.5,19.34375 Z" id="path-5"></path>
        <filter x="-5.0%" y="-5.3%" width="110.0%" height="121.2%" filterUnits="objectBoundingBox" id="filter-6">
            <feOffset dx="0" dy="1" in="SourceAlpha" result="shadowOffsetOuter1"></feOffset>
            <feGaussianBlur stdDeviation="0.5" in="shadowOffsetOuter1" result="shadowBlurOuter1"></feGaussianBlur>
            <feColorMatrix values="0 0 0 0 0.466666667   0 0 0 0 0.662745098   0 0 0 0 0.305882353  0 0 0 1 0" type="matrix" in="shadowBlurOuter1"></feColorMatrix>
        </filter>
    </defs>
    <g id="页面-1" stroke="none" stroke-width="1" fill="none" fill-rule="evenodd">
        <g id="画板" transform="translate(-29.000000, -379.000000)">
            <g id="1新秀" transform="translate(29.000000, 381.000000)">
                <polygon id="矩形" fill="url(#linearGradient-1)" points="91 7 129 7 117.377132 21 129 35 91 35"></polygon>
                <path d="M91.0166504,32 C91.3927207,32 97.3871706,33 109,35 L109,32 C96.63503,32 90.6405801,32 91.0166504,32 Z" id="路径-11" fill="#577E37" transform="translate(100.000000, 33.500000) scale(-1, 1) translate(-100.000000, -33.500000) "></path>
                <polygon id="矩形备份-2" fill="url(#linearGradient-1)" transform="translate(19.000000, 21.000000) scale(-1, 1) translate(-19.000000, -21.000000) " points="0 7 38 7 26.3771324 21 38 35 0 35"></polygon>
                <g id="矩形">
                    <use fill="black" fill-opacity="1" filter="url(#filter-4)" xlink:href="#path-3"></use>
                    <use fill="url(#linearGradient-2)" fill-rule="evenodd" xlink:href="#path-3"></use>
                </g>
                <g id="编组-5" transform="translate(27.000000, 6.000000)">
                    <g id="新秀" fill-rule="nonzero">
                        <use fill="black" fill-opacity="1" filter="url(#filter-6)" xlink:href="#path-5"></use>
                        <use fill="#FFFFFF" xlink:href="#path-5"></use>
                    </g>
                    <polygon id="星形" fill="#FFFFFF" points="5 12.5 2.06107374 14.045085 2.62235871 10.7725425 0.244717419 8.45491503 3.53053687 7.97745751 5 5 6.46946313 7.97745751 9.75528258 8.45491503 7.37764129 10.7725425 7.93892626 14.045085"></polygon>
                    <polygon id="星形备份" fill="#FFFFFF" points="69 12.5 66.0610737 14.045085 66.6223587 10.7725425 64.2447174 8.45491503 67.5305369 7.97745751 69 5 70.4694631 7.97745751 73.7552826 8.45491503 71.3776413 10.7725425 71.9389263 14.045085"></polygon>
                </g>
                <path d="M19,32 C19.3973306,32 25.730664,33 38,35 L38,32 C24.9360027,32 18.6026694,32 19,32 Z" id="路径-11" fill="#577E37"></path>
            </g>
        </g>
    </g>
</svg>