<?xml version="1.0" encoding="UTF-8"?>
<svg width="133px" height="39px" viewBox="0 0 133 39" version="1.1" xmlns="http://www.w3.org/2000/svg" xmlns:xlink="http://www.w3.org/1999/xlink">
    <title>5宗师</title>
    <defs>
        <linearGradient x1="50%" y1="0%" x2="50%" y2="100%" id="linearGradient-1">
            <stop stop-color="#F6D45B" offset="0%"></stop>
            <stop stop-color="#D59B1A" offset="100%"></stop>
        </linearGradient>
        <polygon id="path-2" points="91 7 129 7 117.377132 21 129 35 91 35"></polygon>
        <filter x="-7.9%" y="-10.7%" width="115.8%" height="121.4%" filterUnits="objectBoundingBox" id="filter-3">
            <feOffset dx="0" dy="0" in="SourceAlpha" result="shadowOffsetOuter1"></feOffset>
            <feGaussianBlur stdDeviation="1" in="shadowOffsetOuter1" result="shadowBlurOuter1"></feGaussianBlur>
            <feColorMatrix values="0 0 0 0 0   0 0 0 0 0   0 0 0 0 0  0 0 0 0.3 0" type="matrix" in="shadowBlurOuter1"></feColorMatrix>
        </filter>
        <polygon id="path-4" points="0 7 38 7 26.3771324 21 38 35 0 35"></polygon>
        <filter x="-7.9%" y="-10.7%" width="115.8%" height="121.4%" filterUnits="objectBoundingBox" id="filter-5">
            <feOffset dx="0" dy="0" in="SourceAlpha" result="shadowOffsetOuter1"></feOffset>
            <feGaussianBlur stdDeviation="1" in="shadowOffsetOuter1" result="shadowBlurOuter1"></feGaussianBlur>
            <feColorMatrix values="0 0 0 0 0   0 0 0 0 0   0 0 0 0 0  0 0 0 0.3 0" type="matrix" in="shadowBlurOuter1"></feColorMatrix>
        </filter>
        <linearGradient x1="50%" y1="0%" x2="50%" y2="100%" id="linearGradient-6">
            <stop stop-color="#FFE27C" offset="0%"></stop>
            <stop stop-color="#E2A827" offset="100%"></stop>
        </linearGradient>
        <path d="M25,0 L103,0 C106.313708,-6.08718376e-16 109,2.6862915 109,6 L109,32 L109,32 L19,32 L19,6 C19,2.6862915 21.6862915,6.08718376e-16 25,0 Z" id="path-7"></path>
        <filter x="-3.3%" y="-9.4%" width="106.7%" height="118.8%" filterUnits="objectBoundingBox" id="filter-8">
            <feOffset dx="0" dy="0" in="SourceAlpha" result="shadowOffsetOuter1"></feOffset>
            <feGaussianBlur stdDeviation="1" in="shadowOffsetOuter1" result="shadowBlurOuter1"></feGaussianBlur>
            <feColorMatrix values="0 0 0 0 0   0 0 0 0 0   0 0 0 0 0  0 0 0 0.3 0" type="matrix" in="shadowBlurOuter1"></feColorMatrix>
        </filter>
        <path d="M32.796875,8.796875 L32.796875,6.765625 L34.828125,6.765625 L34.828125,2.390625 L27.796875,2.390625 C27.640625,1.66145833 27.484375,1.03645833 27.328125,0.515625 L27.328125,0.515625 L24.203125,0.75 C24.2552083,0.854166667 24.3072917,1.01041667 24.359375,1.21875 C24.5677083,1.73958333 24.6979167,2.13020833 24.75,2.390625 L24.75,2.390625 L17.171875,2.390625 L17.171875,6.765625 L19.203125,6.765625 L19.203125,8.796875 L32.796875,8.796875 Z M32.171875,6.53125 L19.75,6.53125 L19.75,4.65625 L32.171875,4.65625 L32.171875,6.53125 Z M22.40625,19.03125 C22.71875,19.03125 23.1875,19.0052083 23.8125,18.953125 L23.8125,18.953125 L25.0625,18.953125 C27.0416667,18.953125 27.953125,17.9375 27.796875,15.90625 L27.796875,15.90625 L27.796875,12.703125 L35.21875,12.703125 L35.21875,10.4375 L16.78125,10.4375 L16.78125,12.703125 L25.0625,12.703125 L25.0625,15.59375 C25.1145833,16.3229167 24.7239583,16.7135417 23.890625,16.765625 C23.0572917,16.765625 22.3802083,16.7395833 21.859375,16.6875 C22.0677083,17.4166667 22.25,18.1979167 22.40625,19.03125 Z M17.953125,18.484375 C19.8802083,17.3385417 21.6510417,16.140625 23.265625,14.890625 L23.265625,14.890625 L21.625,13.015625 C19.90625,14.421875 18.1875,15.5677083 16.46875,16.453125 C17.0416667,17.1302083 17.5364583,17.8072917 17.953125,18.484375 Z M33.890625,18.328125 L35.375,16.296875 C33.2395833,14.9947917 31.5208333,13.9791667 30.21875,13.25 L30.21875,13.25 L28.734375,15.203125 C29.203125,15.4635417 29.8541667,15.8541667 30.6875,16.375 C32.09375,17.15625 33.1614583,17.8072917 33.890625,18.328125 L33.890625,18.328125 Z M40.671875,19.421875 C43.0677083,17.3385417 44.1875,13.9010417 44.03125,9.109375 L44.03125,9.109375 L44.03125,0.671875 L41.609375,0.671875 L41.609375,9.109375 C41.609375,11.5052083 41.4010417,13.2760417 40.984375,14.421875 C40.5677083,15.6197917 39.7083333,16.8177083 38.40625,18.015625 C39.4479167,18.5364583 40.203125,19.0052083 40.671875,19.421875 Z M51.765625,19.265625 L51.765625,8.25 L53.640625,8.25 L53.640625,13.71875 C53.640625,14.1875 53.40625,14.421875 52.9375,14.421875 L52.9375,14.421875 L51.921875,14.421875 L52.3125,16.6875 C53.09375,16.6875 53.6666667,16.6614583 54.03125,16.609375 C55.28125,16.5572917 55.90625,15.8020833 55.90625,14.34375 L55.90625,14.34375 L55.90625,5.90625 L51.765625,5.90625 L51.765625,3.71875 L56.453125,3.71875 L56.453125,1.375 L44.890625,1.375 L44.890625,3.71875 L49.34375,3.71875 L49.34375,5.90625 L45.359375,5.90625 L45.359375,16.765625 L47.546875,16.765625 L47.546875,8.25 L49.34375,8.25 L49.34375,19.265625 L51.765625,19.265625 Z M40.28125,13.875 L40.28125,2.390625 L38.25,2.390625 L38.25,13.875 L40.28125,13.875 Z" id="path-9"></path>
        <filter x="-5.0%" y="-5.3%" width="110.0%" height="121.2%" filterUnits="objectBoundingBox" id="filter-10">
            <feOffset dx="0" dy="1" in="SourceAlpha" result="shadowOffsetOuter1"></feOffset>
            <feGaussianBlur stdDeviation="0.5" in="shadowOffsetOuter1" result="shadowBlurOuter1"></feGaussianBlur>
            <feColorMatrix values="0 0 0 0 0.784593886   0 0 0 0 0.415173376   0 0 0 0 0.0870958384  0 0 0 0.5 0" type="matrix" in="shadowBlurOuter1"></feColorMatrix>
        </filter>
    </defs>
    <g id="页面-1" stroke="none" stroke-width="1" fill="none" fill-rule="evenodd">
        <g id="画板" transform="translate(-171.000000, -441.000000)">
            <g id="5宗师" transform="translate(173.000000, 443.000000)">
                <g id="矩形">
                    <use fill="black" fill-opacity="1" filter="url(#filter-3)" xlink:href="#path-2"></use>
                    <use fill="url(#linearGradient-1)" fill-rule="evenodd" xlink:href="#path-2"></use>
                </g>
                <path d="M91.0166504,32 C91.3927207,32 97.3871706,33 109,35 L109,32 C96.63503,32 90.6405801,32 91.0166504,32 Z" id="路径-11" fill="#A97606" transform="translate(100.000000, 33.500000) scale(-1, 1) translate(-100.000000, -33.500000) "></path>
                <g id="矩形备份-2" transform="translate(19.000000, 21.000000) scale(-1, 1) translate(-19.000000, -21.000000) ">
                    <use fill="black" fill-opacity="1" filter="url(#filter-5)" xlink:href="#path-4"></use>
                    <use fill="url(#linearGradient-1)" fill-rule="evenodd" xlink:href="#path-4"></use>
                </g>
                <g id="矩形">
                    <use fill="black" fill-opacity="1" filter="url(#filter-8)" xlink:href="#path-7"></use>
                    <use fill="url(#linearGradient-6)" fill-rule="evenodd" xlink:href="#path-7"></use>
                </g>
                <g id="编组-5" transform="translate(27.000000, 6.000000)">
                    <g id="宗师" fill-rule="nonzero">
                        <use fill="black" fill-opacity="1" filter="url(#filter-10)" xlink:href="#path-9"></use>
                        <use fill="#FFFFFF" xlink:href="#path-9"></use>
                    </g>
                    <polygon id="星形" fill="#FFFFFF" points="5 12.5 2.06107374 14.045085 2.62235871 10.7725425 0.244717419 8.45491503 3.53053687 7.97745751 5 5 6.46946313 7.97745751 9.75528258 8.45491503 7.37764129 10.7725425 7.93892626 14.045085"></polygon>
                    <polygon id="星形备份" fill="#FFFFFF" points="69 12.5 66.0610737 14.045085 66.6223587 10.7725425 64.2447174 8.45491503 67.5305369 7.97745751 69 5 70.4694631 7.97745751 73.7552826 8.45491503 71.3776413 10.7725425 71.9389263 14.045085"></polygon>
                </g>
                <path d="M19,32 C19.3973306,32 25.730664,33 38,35 L38,32 C24.9360027,32 18.6026694,32 19,32 Z" id="路径-11" fill="#A97606"></path>
            </g>
        </g>
    </g>
</svg>