<?xml version="1.0" encoding="UTF-8"?>
<svg width="40px" height="40px" viewBox="0 0 40 40" version="1.1" xmlns="http://www.w3.org/2000/svg" xmlns:xlink="http://www.w3.org/1999/xlink">
    <title>3</title>
    <defs>
        <linearGradient x1="59.3813771%" y1="0%" x2="59.3813771%" y2="100%" id="linearGradient-1">
            <stop stop-color="#FB6F52" offset="0%"></stop>
            <stop stop-color="#F3240A" offset="100%"></stop>
        </linearGradient>
    </defs>
    <g id="3" stroke="none" stroke-width="1" fill="none" fill-rule="evenodd">
        <path d="M39.5612756,12.6754188 C39.5612756,12.6754188 38.7344857,13.0639746 37.4270429,13.6468312 L37.4270429,19.5531261 L38.8114101,20.9519819 L36.8886629,22.8948067 L34.9659608,20.9519819 L36.3503279,19.5531261 L36.3503279,14.1519584 C32.1203022,16.0948287 25.0446628,19.3199835 23.3334012,20.0970952 C21.2953351,21.0102675 20.8338794,20.9908238 20.0070896,20.9908238 C19.1802997,20.9908238 18.7380864,21.0102675 16.680778,20.0970952 C14.1812112,18.9896678 0.452903565,12.694817 0.452903565,12.694817 C0.452903565,12.694817 -0.566129456,12.0925622 0.452903565,11.626277 C1.47193659,11.1599918 17.5075228,3.83539737 17.5075228,3.83539737 C17.5075228,3.83539737 19.2764664,3 20.0070896,3 C20.7377128,3 22.4874141,3.83539737 22.4874141,3.83539737 C22.4874141,3.83539737 38.5422426,11.140548 39.5420333,11.626277 C40.5611113,12.0731185 39.5612756,12.6754188 39.5612756,12.6754188 Z M20.0070896,24.5850907 C19.1802997,24.5850907 18.7380864,24.6045344 16.680778,23.6914077 C15.430972,23.1279493 11.4317192,21.3016958 7.70158877,19.591968 L7.70158877,32.0068126 C11.4317192,33.6970966 15.4502144,35.5427939 16.680778,36.1062522 C18.718844,37.019379 19.1802997,36.9999677 20.0070896,36.9999677 C20.8338794,36.9999677 21.2760928,37.019379 23.3334012,36.1062522 C24.5832071,35.5427939 28.58246,33.7165404 32.3125904,32.0068126 L32.3125904,19.591968 C28.58246,21.2822521 24.5639648,23.1279493 23.3334012,23.6914077 C21.2760928,24.6045344 20.8338794,24.5850907 20.0070896,24.5850907 L20.0070896,24.5850907 Z" id="形状" fill="url(#linearGradient-1)" fill-rule="nonzero"></path>
    </g>
</svg>