<?xml version="1.0" encoding="UTF-8"?>
<svg width="40px" height="40px" viewBox="0 0 40 40" version="1.1" xmlns="http://www.w3.org/2000/svg" xmlns:xlink="http://www.w3.org/1999/xlink">
    <title>2</title>
    <defs>
        <linearGradient x1="59.3813771%" y1="0%" x2="59.3813771%" y2="100%" id="linearGradient-1">
            <stop stop-color="#FB6F52" offset="0%"></stop>
            <stop stop-color="#F3240A" offset="100%"></stop>
        </linearGradient>
    </defs>
    <g id="2" stroke="none" stroke-width="1" fill="none" fill-rule="evenodd">
        <path d="M1.4275,37 C0.475832031,37 6.39488462e-14,36.5281234 6.39488462e-14,35.5843663 L6.39488462e-14,35.5818871 C6.39488462e-14,34.6381301 0.475832031,34.1662535 1.4275,34.1662535 L2.857,34.166 L2.85749989,5.47921869 C2.85749989,4.10998515 3.97678895,3 5.35749989,3 L20.3574999,3 C21.7382108,3 22.8574999,4.10998478 22.8574999,5.47921832 L22.857,34.166 L25.714,34.166 L25.7149997,12.6789231 C25.714326,11.3096896 26.8330665,10.1991625 28.2137774,10.1984959 C28.6020821,10.1984959 28.9850938,10.2878232 29.3324493,10.4599448 L35.76,13.6482427 C36.6068242,14.0678852 37.1419961,14.9258691 37.1425,15.8646639 L37.142,34.166 L38.5725,34.1662535 C39.524168,34.1662535 40,34.6381301 40,35.5818871 L40,35.5843663 C40,36.5281234 39.524168,37 38.5725,37 L1.4275,37 Z M17.3249999,25.6674931 L8.39249995,25.6674931 C7.74529169,25.6674931 7.2129661,26.1552794 7.14895356,26.7803595 L7.14249995,26.9071022 L7.14249995,26.9071022 L7.14249995,27.2616306 C7.14249995,27.9462474 7.70214448,28.5012398 8.39249995,28.5012398 L17.3249999,28.5012398 C18.0153554,28.5012398 18.5749999,27.9462474 18.5749999,27.2616306 L18.5749999,26.9071024 C18.5749999,26.2224856 18.0153554,25.6674931 17.3249999,25.6674931 Z M17.3249999,17.1662535 L8.39249995,17.1662535 C7.74529169,17.1662535 7.2129661,17.6540397 7.14895356,18.2791199 L7.14249995,18.4058626 L7.14249995,18.4058626 L7.14249995,18.760391 C7.14249995,19.4450078 7.70214448,20.0000002 8.39249995,20.0000002 L17.3249999,20.0000002 C18.0153554,20.0000002 18.5749999,19.4450078 18.5749999,18.760391 L18.5749999,18.4058628 C18.5749999,17.721246 18.0153554,17.1662535 17.3249999,17.1662535 Z M8.39249995,8.66749307 C7.74529169,8.66749307 7.2129661,9.15527935 7.14895356,9.78035947 L7.14249995,9.90710223 L7.14249995,9.90710223 L7.14249995,10.2591514 C7.14249995,10.9437682 7.70214448,11.4987606 8.39249995,11.4987606 L17.3249999,11.4987606 C18.0153554,11.4987606 18.5749999,10.9437682 18.5749999,10.2591514 L18.5749999,9.90958164 C18.5749999,9.22496487 18.0153554,8.66997248 17.3249999,8.66997248 L8.39249989,8.66997248 L8.39249995,8.66749307 Z" id="形状结合" fill="url(#linearGradient-1)" fill-rule="nonzero"></path>
    </g>
</svg>