<?xml version="1.0" encoding="UTF-8"?>
<svg width="61px" height="39px" viewBox="0 0 61 39" version="1.1" xmlns="http://www.w3.org/2000/svg" xmlns:xlink="http://www.w3.org/1999/xlink">
    <title>编组 2</title>
    <g id="资讯" stroke="none" stroke-width="1" fill="none" fill-rule="evenodd">
        <g id="画板" transform="translate(-410.000000, -238.000000)" fill="#B6BBC2" fill-rule="nonzero">
            <g id="编组-2" transform="translate(410.082453, 238.242199)">
                <g id="编组" transform="translate(0.917547, 0.757801)">
                    <path d="M18.4753007,26.7913477 C17.9341153,27.0106442 17.39293,27.1202925 16.9599817,27.1202925 C16.6352704,27.0106442 16.3105592,26.6816995 16.2023221,26.2431065 L15.3364255,25.9141617 L14.4705289,27.0106442 L27.4589781,30.5193882 C27.8919264,30.1904435 28.4331118,29.8614987 28.9742971,29.6422022 L18.4753007,26.7913477 Z M2.13150217,22.4054177 C1.48207971,22.1861212 1.04913141,21.5282317 1.26560556,20.8703422 L2.0232651,18.2387842 L0.616183103,18.2387842 L0.0749977203,20.4317492 C-0.249713509,21.8571764 0.507946026,23.1729554 1.80679094,23.6115484 L12.6304986,26.5720512 C13.3881581,26.462403 14.4705289,26.2431065 15.2281884,25.9141617 L2.13150217,22.4054177 Z M6.136274,2.23013952 C6.35274816,1.57225002 7.00217061,1.13365701 7.65159307,1.35295351 L48.9981563,12.5370751 C48.6734451,12.0984821 48.6734451,11.4405926 48.6734451,11.1116478 L9.59986045,0.585415759 C9.92457168,0.914360511 10.2492829,1.35295351 10.5739941,1.57225002 C9.8163346,1.24330526 8.51748969,0.804712261 7.75983015,0.0371745044 C6.46098523,-0.182121997 5.16214031,0.585415759 4.94566616,1.90119477 L0.940894332,17.0326534 C1.26560556,17.2519499 1.69855387,17.3615981 2.13150217,17.3615981 L6.136274,2.23013952 L6.136274,2.23013952 Z M56.5747516,13.3046129 L49.2146304,11.2212961 C50.0805271,11.6598891 51.7040832,12.5370751 53.5441135,12.6467234 C53.1111652,12.8660199 52.2452686,12.9756681 51.487609,13.0853164 L56.2500404,14.4010954 C56.8994629,14.6203919 57.3324112,15.2782814 57.115937,15.9361709 L52.4617427,33.5895393 C52.6782169,34.357077 52.786454,35.234263 52.5699798,36.111449 C52.894691,35.7825043 53.3276393,35.234263 53.4358764,34.6860218 L55.4923809,27.1202925 C54.8429584,26.6816995 54.9511955,25.2562722 54.9511955,25.2562722 C54.9511955,25.2562722 55.2759067,25.585217 55.8170921,25.8045135 L58.3065449,16.2651156 C58.6312561,15.0589849 57.7653595,13.6335576 56.5747516,13.3046129 L56.5747516,13.3046129 Z M50.7299495,35.4535595 L35.0355734,31.1772778 C33.5202544,30.848333 31.2472757,30.6290365 28.8660601,30.848333 L50.4052383,36.6596903 C50.6217124,36.7693385 50.8381866,36.7693385 51.0546607,36.7693385 C51.1628978,36.4403938 51.379372,35.8921525 51.7040832,35.3439113 C51.487609,35.4535595 51.1628978,35.5632078 50.7299495,35.4535595 L50.7299495,35.4535595 Z M17.8258783,15.2782814 L19.6659086,8.48008982 L8.19277846,5.1906423 L7.86806723,6.2871248 L18.1505895,9.02833108 L17.1764558,12.8660199 L8.51748969,10.5634066 L9.05867507,8.48008982 L7.86806723,8.15114507 L5.81156277,15.7168744 C5.48685154,17.2519499 5.91979985,18.2387842 7.32688184,18.5677289 L14.9034772,20.6510457 C16.2023221,20.9799904 17.1764558,20.6510457 17.7176412,19.6642114 C18.0423524,19.1159702 18.3670636,18.3484324 18.800012,17.3615981 C18.3670636,17.2519499 17.9341153,17.0326534 17.7176412,16.7037086 C17.39293,17.6905429 16.9599817,18.4580807 16.7435075,19.0063219 C16.4187963,19.5545632 15.8776109,19.7738597 15.0117143,19.4449149 L7.9763043,17.5808946 C7.11040769,17.3615981 6.89393354,16.8133569 7.11040769,16.0458191 C6.67745939,15.7168744 6.24451108,15.2782814 6.24451108,15.2782814 C6.24451108,15.2782814 6.67745939,15.1686331 7.32688184,14.9493366 L8.19277846,11.6598891 L16.7435075,13.9625024 L16.6352704,14.9493366 L17.8258783,15.2782814 L17.8258783,15.2782814 Z" id="形状"></path>
                    <path d="M45.0944573,15.1826825 L46.4194661,15.5377175 L43.2211645,27.4739416 C44.8172906,27.1590903 46.2007264,26.5552077 47.3494896,25.6873423 C46.9259489,24.4755264 46.6357241,23.2220854 46.474948,21.9414523 C46.2178802,22.1742248 45.9593244,22.3804939 45.7020281,22.5740482 L45.4452534,22.763875 L44.8973533,21.5032677 C46.3352355,20.3743643 47.5809314,18.7006563 48.6225627,16.478961 L48.8154743,16.0559706 L50.1071002,16.6495714 C49.888192,17.12461 49.6576063,17.5791164 49.4289959,18.0102229 L49.2015495,18.4334232 L51.0081113,18.9168022 L51.2429606,19.9086781 L52.0721113,19.2018022 L53.7037297,19.6397788 L53.3440658,20.9820627 L52.2185208,20.6804738 C51.5012343,22.9015063 50.4234927,24.7010974 49.0137908,26.0868822 C49.5308446,27.2979725 50.2074305,28.4540273 51.0235355,29.5496841 L51.3360758,29.9577138 L50.1122082,30.8209244 C49.1836968,29.6130268 48.4389784,28.3460905 47.8741856,27.0345485 C46.7580629,27.8324065 45.4801239,28.4334903 44.0296644,28.8349317 L43.5893403,28.9493719 L43.1902256,27.5894068 L42.8963067,28.6863271 L41.571298,28.331292 L42.5381364,24.7230018 C41.6888244,24.7924421 40.8079891,24.8336349 39.9122002,24.8430997 L39.2378136,24.844195 L39.1482745,23.5826498 C39.3635568,23.5607775 39.5169319,23.4768562 39.5880203,23.3351666 L39.6166129,23.2595277 L41.6817799,15.5522198 L43.0067886,15.9072548 L40.9570911,23.5568301 C41.3895355,23.5386349 41.8173666,23.5123284 42.2459517,23.474765 L42.8900656,23.4095842 L45.0944573,15.1826825 Z M24.8226273,10.5398022 L29.8271113,11.8808022 L29.9304155,12.5822349 L30.6191113,12.0928022 L36.5055002,13.6702185 L33.2259841,25.909539 L31.9152228,25.5583215 L32.0505802,25.0531609 L30.1191113,24.5358022 L29.5,23.9076923 L29.1381113,24.2728022 L22.98923,22.6251794 L22.8538726,23.13034 L21.5431113,22.7791226 L24.8226273,10.5398022 Z M48.4287108,19.6649973 C48.1779508,20.03095 47.9206782,20.3642188 47.6491581,20.69367 C47.7647479,22.0859508 48.0498833,23.4153752 48.4760694,24.6743082 C49.4620696,23.6247958 50.2337183,22.3069514 50.7991797,20.7351298 L50.9362542,20.3368916 L48.4287108,19.6649973 Z M25.8085309,12.1034051 L23.3140877,21.4127939 L32.3754379,23.8407754 L34.8698811,14.5313866 L25.8085309,12.1034051 Z M26.9818795,14.506174 L32.6808418,16.0332063 L31.2499209,21.3734759 L25.5509586,19.8464435 L26.9818795,14.506174 Z M27.9262629,15.996774 L27.1102512,19.0421709 L30.2731753,19.8896739 L31.089187,16.8442769 L27.9262629,15.996774 Z" id="形状结合"></path>
                </g>
            </g>
        </g>
    </g>
</svg>